<?xml version="1.0" encoding="UTF-8" standalone="no"?><svg xmlns="http://www.w3.org/2000/svg" xmlns:xlink="http://www.w3.org/1999/xlink" contentStyleType="text/css" height="560px" preserveAspectRatio="none" style="width:2692px;height:560px;background:#FFFFFF;" version="1.1" viewBox="0 0 2692 560" width="2692px" zoomAndPan="magnify"><defs/><g><!--MD5=[cc31929a079836d66e8581bff48f4e9b]
class EditorTexto--><g id="elem_EditorTexto"><rect codeLine="1" fill="#F1F1F1" height="390.2344" id="EditorTexto" rx="2.5" ry="2.5" style="stroke:#181818;stroke-width:0.5;" width="343" x="1278.5" y="7"/><ellipse cx="1406.25" cy="23" fill="#ADD1B2" rx="11" ry="11" style="stroke:#181818;stroke-width:1.0;"/><path d="M1409.2188,28.6406 Q1408.6406,28.9375 1408,29.0781 Q1407.3594,29.2344 1406.6563,29.2344 Q1404.1563,29.2344 1402.8281,27.5938 Q1401.5156,25.9375 1401.5156,22.8125 Q1401.5156,19.6875 1402.8281,18.0313 Q1404.1563,16.375 1406.6563,16.375 Q1407.3594,16.375 1408,16.5313 Q1408.6563,16.6875 1409.2188,16.9844 L1409.2188,19.7031 Q1408.5938,19.125 1408,18.8594 Q1407.4063,18.5781 1406.7813,18.5781 Q1405.4375,18.5781 1404.75,19.6563 Q1404.0625,20.7188 1404.0625,22.8125 Q1404.0625,24.9063 1404.75,25.9844 Q1405.4375,27.0469 1406.7813,27.0469 Q1407.4063,27.0469 1408,26.7813 Q1408.5938,26.5 1409.2188,25.9219 L1409.2188,28.6406 Z " fill="#000000"/><text fill="#000000" font-family="sans-serif" font-size="14" lengthAdjust="spacing" textLength="79" x="1426.75" y="27.8467">EditorTexto</text><line style="stroke:#181818;stroke-width:0.5;" x1="1279.5" x2="1620.5" y1="39" y2="39"/><rect fill="none" height="6" style="stroke:#C82930;stroke-width:1.0;" width="6" x="1286.5" y="49.6484"/><text fill="#000000" font-family="sans-serif" font-size="14" lengthAdjust="spacing" textLength="141" x="1298.5" y="55.9951">JTextPane areaTexto</text><rect fill="none" height="6" style="stroke:#C82930;stroke-width:1.0;" width="6" x="1286.5" y="65.9453"/><text fill="#000000" font-family="sans-serif" font-size="14" lengthAdjust="spacing" textLength="134" x="1298.5" y="72.292">JLabel rotuloArquivo</text><rect fill="none" height="6" style="stroke:#C82930;stroke-width:1.0;" width="6" x="1286.5" y="82.2422"/><text fill="#000000" font-family="sans-serif" font-size="14" lengthAdjust="spacing" textLength="203" x="1298.5" y="88.5889">JLabel rotuloContadorPalavras</text><rect fill="none" height="6" style="stroke:#C82930;stroke-width:1.0;" width="6" x="1286.5" y="98.5391"/><text fill="#000000" font-family="sans-serif" font-size="14" lengthAdjust="spacing" textLength="179" x="1298.5" y="104.8857">JTextField campoPesquisa</text><rect fill="none" height="6" style="stroke:#C82930;stroke-width:1.0;" width="6" x="1286.5" y="114.8359"/><text fill="#000000" font-family="sans-serif" font-size="14" lengthAdjust="spacing" textLength="166" x="1298.5" y="121.1826">JLabel rotuloOcorrencias</text><rect fill="none" height="6" style="stroke:#C82930;stroke-width:1.0;" width="6" x="1286.5" y="131.1328"/><text fill="#000000" font-family="sans-serif" font-size="14" lengthAdjust="spacing" textLength="246" x="1298.5" y="137.4795">UndoManager gerenciadorDesfazer</text><rect fill="none" height="6" style="stroke:#C82930;stroke-width:1.0;" width="6" x="1286.5" y="147.4297"/><text fill="#000000" font-family="sans-serif" font-size="14" lengthAdjust="spacing" textLength="188" x="1298.5" y="153.7764">JFileChooser seletorArquivo</text><rect fill="none" height="6" style="stroke:#C82930;stroke-width:1.0;" width="6" x="1286.5" y="163.7266"/><text fill="#000000" font-family="sans-serif" font-size="14" lengthAdjust="spacing" textLength="178" x="1298.5" y="170.0732">Color corDestaquePadrao</text><rect fill="none" height="6" style="stroke:#C82930;stroke-width:1.0;" width="6" x="1286.5" y="180.0234"/><text fill="#000000" font-family="sans-serif" font-size="14" lengthAdjust="spacing" textLength="186" x="1298.5" y="186.3701">JButton botaoCorDestaque</text><line style="stroke:#181818;stroke-width:0.5;" x1="1279.5" x2="1620.5" y1="193.6719" y2="193.6719"/><ellipse cx="1289.5" cy="207.3203" fill="#84BE84" rx="3" ry="3" style="stroke:#038048;stroke-width:1.0;"/><text fill="#000000" font-family="sans-serif" font-size="14" lengthAdjust="spacing" textLength="89" x="1298.5" y="210.667">EditorTexto()</text><rect fill="#F24D5C" height="6" style="stroke:#C82930;stroke-width:1.0;" width="6" x="1286.5" y="220.6172"/><text fill="#000000" font-family="sans-serif" font-size="14" lengthAdjust="spacing" textLength="187" x="1298.5" y="226.9639">atualizarContadorPalavras()</text><rect fill="#F24D5C" height="6" style="stroke:#C82930;stroke-width:1.0;" width="6" x="1286.5" y="236.9141"/><text fill="#000000" font-family="sans-serif" font-size="14" lengthAdjust="spacing" textLength="170" x="1298.5" y="243.2607">inicializarComponentes()</text><rect fill="#F24D5C" height="6" style="stroke:#C82930;stroke-width:1.0;" width="6" x="1286.5" y="253.2109"/><text fill="#000000" font-family="sans-serif" font-size="14" lengthAdjust="spacing" textLength="130" x="1298.5" y="259.5576">configurarAtalhos()</text><rect fill="#F24D5C" height="6" style="stroke:#C82930;stroke-width:1.0;" width="6" x="1286.5" y="269.5078"/><text fill="#000000" font-family="sans-serif" font-size="14" lengthAdjust="spacing" textLength="91" x="1298.5" y="275.8545">abrirArquivo()</text><rect fill="#F24D5C" height="6" style="stroke:#C82930;stroke-width:1.0;" width="6" x="1286.5" y="285.8047"/><text fill="#000000" font-family="sans-serif" font-size="14" lengthAdjust="spacing" textLength="100" x="1298.5" y="292.1514">salvarArquivo()</text><rect fill="#F24D5C" height="6" style="stroke:#C82930;stroke-width:1.0;" width="6" x="1286.5" y="302.1016"/><text fill="#000000" font-family="sans-serif" font-size="14" lengthAdjust="spacing" textLength="93" x="1298.5" y="308.4482">alterarFonte()</text><rect fill="#F24D5C" height="6" style="stroke:#C82930;stroke-width:1.0;" width="6" x="1286.5" y="318.3984"/><text fill="#000000" font-family="sans-serif" font-size="14" lengthAdjust="spacing" textLength="188" x="1298.5" y="324.7451">criarBarraMenu(): JMenuBar</text><rect fill="#F24D5C" height="6" style="stroke:#C82930;stroke-width:1.0;" width="6" x="1286.5" y="334.6953"/><text fill="#000000" font-family="sans-serif" font-size="14" lengthAdjust="spacing" textLength="202" x="1298.5" y="341.042">configurarBarraFerramentas()</text><rect fill="#F24D5C" height="6" style="stroke:#C82930;stroke-width:1.0;" width="6" x="1286.5" y="350.9922"/><text fill="#000000" font-family="sans-serif" font-size="14" lengthAdjust="spacing" textLength="220" x="1298.5" y="357.3389">adicionarBotaoCitacao(JToolBar)</text><rect fill="#F24D5C" height="6" style="stroke:#C82930;stroke-width:1.0;" width="6" x="1286.5" y="367.2891"/><text fill="#000000" font-family="sans-serif" font-size="14" lengthAdjust="spacing" textLength="264" x="1298.5" y="373.6357">adicionarBotoesAlinhamento(JToolBar)</text><rect fill="#F24D5C" height="6" style="stroke:#C82930;stroke-width:1.0;" width="6" x="1286.5" y="383.5859"/><text fill="#000000" font-family="sans-serif" font-size="14" lengthAdjust="spacing" textLength="317" x="1298.5" y="389.9326">redimensionarIcone(String, int, int): ImageIcon</text></g><!--MD5=[b19a56084ab2e55b4e898c014db42300]
class UIUtils--><g id="elem_UIUtils"><rect codeLine="25" fill="#F1F1F1" height="96.8906" id="UIUtils" rx="2.5" ry="2.5" style="stroke:#181818;stroke-width:0.5;" width="510" x="7" y="457"/><ellipse cx="236.75" cy="473" fill="#ADD1B2" rx="11" ry="11" style="stroke:#181818;stroke-width:1.0;"/><path d="M239.7188,478.6406 Q239.1406,478.9375 238.5,479.0781 Q237.8594,479.2344 237.1563,479.2344 Q234.6563,479.2344 233.3281,477.5938 Q232.0156,475.9375 232.0156,472.8125 Q232.0156,469.6875 233.3281,468.0313 Q234.6563,466.375 237.1563,466.375 Q237.8594,466.375 238.5,466.5313 Q239.1563,466.6875 239.7188,466.9844 L239.7188,469.7031 Q239.0938,469.125 238.5,468.8594 Q237.9063,468.5781 237.2813,468.5781 Q235.9375,468.5781 235.25,469.6563 Q234.5625,470.7188 234.5625,472.8125 Q234.5625,474.9063 235.25,475.9844 Q235.9375,477.0469 237.2813,477.0469 Q237.9063,477.0469 238.5,476.7813 Q239.0938,476.5 239.7188,475.9219 L239.7188,478.6406 Z " fill="#000000"/><text fill="#000000" font-family="sans-serif" font-size="14" lengthAdjust="spacing" textLength="42" x="257.25" y="477.8467">UIUtils</text><line style="stroke:#181818;stroke-width:0.5;" x1="8" x2="516" y1="489" y2="489"/><line style="stroke:#181818;stroke-width:0.5;" x1="8" x2="516" y1="497" y2="497"/><ellipse cx="18" cy="510.6484" fill="#84BE84" rx="3" ry="3" style="stroke:#038048;stroke-width:1.0;"/><text fill="#000000" font-family="sans-serif" font-size="14" lengthAdjust="spacing" textLength="376" x="27" y="513.9951">static criarItemMenu(String, ActionListener): JMenuItem</text><ellipse cx="18" cy="526.9453" fill="#84BE84" rx="3" ry="3" style="stroke:#038048;stroke-width:1.0;"/><text fill="#000000" font-family="sans-serif" font-size="14" lengthAdjust="spacing" textLength="484" x="27" y="530.292">static criarBotaoEstilizado(Class, String, String, ActionListener): JButton</text><ellipse cx="18" cy="543.2422" fill="#84BE84" rx="3" ry="3" style="stroke:#038048;stroke-width:1.0;"/><text fill="#000000" font-family="sans-serif" font-size="14" lengthAdjust="spacing" textLength="326" x="27" y="546.5889">static criarIconeCorDestaque(Color): ImageIcon</text></g><!--MD5=[ded3e52c1074c348f3250fb0e09ba913]
class ArquivoUtils--><g id="elem_ArquivoUtils"><rect codeLine="31" fill="#F1F1F1" height="96.8906" id="ArquivoUtils" rx="2.5" ry="2.5" style="stroke:#181818;stroke-width:0.5;" width="375" x="552.5" y="457"/><ellipse cx="695.75" cy="473" fill="#ADD1B2" rx="11" ry="11" style="stroke:#181818;stroke-width:1.0;"/><path d="M698.7188,478.6406 Q698.1406,478.9375 697.5,479.0781 Q696.8594,479.2344 696.1563,479.2344 Q693.6563,479.2344 692.3281,477.5938 Q691.0156,475.9375 691.0156,472.8125 Q691.0156,469.6875 692.3281,468.0313 Q693.6563,466.375 696.1563,466.375 Q696.8594,466.375 697.5,466.5313 Q698.1563,466.6875 698.7188,466.9844 L698.7188,469.7031 Q698.0938,469.125 697.5,468.8594 Q696.9063,468.5781 696.2813,468.5781 Q694.9375,468.5781 694.25,469.6563 Q693.5625,470.7188 693.5625,472.8125 Q693.5625,474.9063 694.25,475.9844 Q694.9375,477.0469 696.2813,477.0469 Q696.9063,477.0469 697.5,476.7813 Q698.0938,476.5 698.7188,475.9219 L698.7188,478.6406 Z " fill="#000000"/><text fill="#000000" font-family="sans-serif" font-size="14" lengthAdjust="spacing" textLength="80" x="716.25" y="477.8467">ArquivoUtils</text><line style="stroke:#181818;stroke-width:0.5;" x1="553.5" x2="926.5" y1="489" y2="489"/><line style="stroke:#181818;stroke-width:0.5;" x1="553.5" x2="926.5" y1="497" y2="497"/><ellipse cx="563.5" cy="510.6484" fill="#84BE84" rx="3" ry="3" style="stroke:#038048;stroke-width:1.0;"/><text fill="#000000" font-family="sans-serif" font-size="14" lengthAdjust="spacing" textLength="340" x="572.5" y="513.9951">static abrirArquivo(JFileChooser, JTextPane, JLabel)</text><ellipse cx="563.5" cy="526.9453" fill="#84BE84" rx="3" ry="3" style="stroke:#038048;stroke-width:1.0;"/><text fill="#000000" font-family="sans-serif" font-size="14" lengthAdjust="spacing" textLength="349" x="572.5" y="530.292">static salvarArquivo(JFileChooser, JTextPane, JLabel)</text><ellipse cx="563.5" cy="543.2422" fill="#84BE84" rx="3" ry="3" style="stroke:#038048;stroke-width:1.0;"/><text fill="#000000" font-family="sans-serif" font-size="14" lengthAdjust="spacing" textLength="260" x="572.5" y="546.5889">static fecharArquivo(JTextPane, JLabel)</text></g><!--MD5=[3e0f17dc29653ab14b3ad2bc78f20f02]
class TextoUtils--><g id="elem_TextoUtils"><rect codeLine="37" fill="#F1F1F1" height="96.8906" id="TextoUtils" rx="2.5" ry="2.5" style="stroke:#181818;stroke-width:0.5;" width="318" x="963" y="457"/><ellipse cx="1083.75" cy="473" fill="#ADD1B2" rx="11" ry="11" style="stroke:#181818;stroke-width:1.0;"/><path d="M1086.7188,478.6406 Q1086.1406,478.9375 1085.5,479.0781 Q1084.8594,479.2344 1084.1563,479.2344 Q1081.6563,479.2344 1080.3281,477.5938 Q1079.0156,475.9375 1079.0156,472.8125 Q1079.0156,469.6875 1080.3281,468.0313 Q1081.6563,466.375 1084.1563,466.375 Q1084.8594,466.375 1085.5,466.5313 Q1086.1563,466.6875 1086.7188,466.9844 L1086.7188,469.7031 Q1086.0938,469.125 1085.5,468.8594 Q1084.9063,468.5781 1084.2813,468.5781 Q1082.9375,468.5781 1082.25,469.6563 Q1081.5625,470.7188 1081.5625,472.8125 Q1081.5625,474.9063 1082.25,475.9844 Q1082.9375,477.0469 1084.2813,477.0469 Q1084.9063,477.0469 1085.5,476.7813 Q1086.0938,476.5 1086.7188,475.9219 L1086.7188,478.6406 Z " fill="#000000"/><text fill="#000000" font-family="sans-serif" font-size="14" lengthAdjust="spacing" textLength="68" x="1104.25" y="477.8467">TextoUtils</text><line style="stroke:#181818;stroke-width:0.5;" x1="964" x2="1280" y1="489" y2="489"/><line style="stroke:#181818;stroke-width:0.5;" x1="964" x2="1280" y1="497" y2="497"/><ellipse cx="974" cy="510.6484" fill="#84BE84" rx="3" ry="3" style="stroke:#038048;stroke-width:1.0;"/><text fill="#000000" font-family="sans-serif" font-size="14" lengthAdjust="spacing" textLength="292" x="983" y="513.9951">static alterarTamanhoFonte(JTextPane, int)</text><ellipse cx="974" cy="526.9453" fill="#84BE84" rx="3" ry="3" style="stroke:#038048;stroke-width:1.0;"/><text fill="#000000" font-family="sans-serif" font-size="14" lengthAdjust="spacing" textLength="250" x="983" y="530.292">static alterarFonte(JTextPane, String)</text><ellipse cx="974" cy="543.2422" fill="#84BE84" rx="3" ry="3" style="stroke:#038048;stroke-width:1.0;"/><text fill="#000000" font-family="sans-serif" font-size="14" lengthAdjust="spacing" textLength="291" x="983" y="546.5889">static definirTamanhoFonte(JTextPane, int)</text></g><!--MD5=[6242c4e359d92920feb630befef2ef41]
class UndoRedoUtils--><g id="elem_UndoRedoUtils"><rect codeLine="43" fill="#F1F1F1" height="80.5938" id="UndoRedoUtils" rx="2.5" ry="2.5" style="stroke:#181818;stroke-width:0.5;" width="268" x="1316" y="465"/><ellipse cx="1394.25" cy="481" fill="#ADD1B2" rx="11" ry="11" style="stroke:#181818;stroke-width:1.0;"/><path d="M1397.2188,486.6406 Q1396.6406,486.9375 1396,487.0781 Q1395.3594,487.2344 1394.6563,487.2344 Q1392.1563,487.2344 1390.8281,485.5938 Q1389.5156,483.9375 1389.5156,480.8125 Q1389.5156,477.6875 1390.8281,476.0313 Q1392.1563,474.375 1394.6563,474.375 Q1395.3594,474.375 1396,474.5313 Q1396.6563,474.6875 1397.2188,474.9844 L1397.2188,477.7031 Q1396.5938,477.125 1396,476.8594 Q1395.4063,476.5781 1394.7813,476.5781 Q1393.4375,476.5781 1392.75,477.6563 Q1392.0625,478.7188 1392.0625,480.8125 Q1392.0625,482.9063 1392.75,483.9844 Q1393.4375,485.0469 1394.7813,485.0469 Q1395.4063,485.0469 1396,484.7813 Q1396.5938,484.5 1397.2188,483.9219 L1397.2188,486.6406 Z " fill="#000000"/><text fill="#000000" font-family="sans-serif" font-size="14" lengthAdjust="spacing" textLength="103" x="1414.75" y="485.8467">UndoRedoUtils</text><line style="stroke:#181818;stroke-width:0.5;" x1="1317" x2="1583" y1="497" y2="497"/><line style="stroke:#181818;stroke-width:0.5;" x1="1317" x2="1583" y1="505" y2="505"/><ellipse cx="1327" cy="518.6484" fill="#84BE84" rx="3" ry="3" style="stroke:#038048;stroke-width:1.0;"/><text fill="#000000" font-family="sans-serif" font-size="14" lengthAdjust="spacing" textLength="242" x="1336" y="521.9951">static desfazerAcao(UndoManager)</text><ellipse cx="1327" cy="534.9453" fill="#84BE84" rx="3" ry="3" style="stroke:#038048;stroke-width:1.0;"/><text fill="#000000" font-family="sans-serif" font-size="14" lengthAdjust="spacing" textLength="230" x="1336" y="538.292">static refazerAcao(UndoManager)</text></g><!--MD5=[419da278c6fde7b4e787f59b0ef49c14]
class EstiloUtils--><g id="elem_EstiloUtils"><rect codeLine="48" fill="#F1F1F1" height="80.5938" id="EstiloUtils" rx="2.5" ry="2.5" style="stroke:#181818;stroke-width:0.5;" width="318" x="1619" y="465"/><ellipse cx="1740.75" cy="481" fill="#ADD1B2" rx="11" ry="11" style="stroke:#181818;stroke-width:1.0;"/><path d="M1743.7188,486.6406 Q1743.1406,486.9375 1742.5,487.0781 Q1741.8594,487.2344 1741.1563,487.2344 Q1738.6563,487.2344 1737.3281,485.5938 Q1736.0156,483.9375 1736.0156,480.8125 Q1736.0156,477.6875 1737.3281,476.0313 Q1738.6563,474.375 1741.1563,474.375 Q1741.8594,474.375 1742.5,474.5313 Q1743.1563,474.6875 1743.7188,474.9844 L1743.7188,477.7031 Q1743.0938,477.125 1742.5,476.8594 Q1741.9063,476.5781 1741.2813,476.5781 Q1739.9375,476.5781 1739.25,477.6563 Q1738.5625,478.7188 1738.5625,480.8125 Q1738.5625,482.9063 1739.25,483.9844 Q1739.9375,485.0469 1741.2813,485.0469 Q1741.9063,485.0469 1742.5,484.7813 Q1743.0938,484.5 1743.7188,483.9219 L1743.7188,486.6406 Z " fill="#000000"/><text fill="#000000" font-family="sans-serif" font-size="14" lengthAdjust="spacing" textLength="66" x="1761.25" y="485.8467">EstiloUtils</text><line style="stroke:#181818;stroke-width:0.5;" x1="1620" x2="1936" y1="497" y2="497"/><line style="stroke:#181818;stroke-width:0.5;" x1="1620" x2="1936" y1="505" y2="505"/><ellipse cx="1630" cy="518.6484" fill="#84BE84" rx="3" ry="3" style="stroke:#038048;stroke-width:1.0;"/><text fill="#000000" font-family="sans-serif" font-size="14" lengthAdjust="spacing" textLength="292" x="1639" y="521.9951">static aplicarEstiloTexto(JTextPane, Object)</text><ellipse cx="1630" cy="534.9453" fill="#84BE84" rx="3" ry="3" style="stroke:#038048;stroke-width:1.0;"/><text fill="#000000" font-family="sans-serif" font-size="14" lengthAdjust="spacing" textLength="212" x="1639" y="538.292">static inserirCitação(JTextPane)</text></g><!--MD5=[13ebceb5f2d738982587d42bb01ce006]
class PesquisaUtils--><g id="elem_PesquisaUtils"><rect codeLine="53" fill="#F1F1F1" height="64.2969" id="PesquisaUtils" rx="2.5" ry="2.5" style="stroke:#181818;stroke-width:0.5;" width="372" x="1972" y="473.5"/><ellipse cx="2107.75" cy="489.5" fill="#ADD1B2" rx="11" ry="11" style="stroke:#181818;stroke-width:1.0;"/><path d="M2110.7188,495.1406 Q2110.1406,495.4375 2109.5,495.5781 Q2108.8594,495.7344 2108.1563,495.7344 Q2105.6563,495.7344 2104.3281,494.0938 Q2103.0156,492.4375 2103.0156,489.3125 Q2103.0156,486.1875 2104.3281,484.5313 Q2105.6563,482.875 2108.1563,482.875 Q2108.8594,482.875 2109.5,483.0313 Q2110.1563,483.1875 2110.7188,483.4844 L2110.7188,486.2031 Q2110.0938,485.625 2109.5,485.3594 Q2108.9063,485.0781 2108.2813,485.0781 Q2106.9375,485.0781 2106.25,486.1563 Q2105.5625,487.2188 2105.5625,489.3125 Q2105.5625,491.4063 2106.25,492.4844 Q2106.9375,493.5469 2108.2813,493.5469 Q2108.9063,493.5469 2109.5,493.2813 Q2110.0938,493 2110.7188,492.4219 L2110.7188,495.1406 Z " fill="#000000"/><text fill="#000000" font-family="sans-serif" font-size="14" lengthAdjust="spacing" textLength="92" x="2128.25" y="494.3467">PesquisaUtils</text><line style="stroke:#181818;stroke-width:0.5;" x1="1973" x2="2343" y1="505.5" y2="505.5"/><line style="stroke:#181818;stroke-width:0.5;" x1="1973" x2="2343" y1="513.5" y2="513.5"/><ellipse cx="1983" cy="527.1484" fill="#84BE84" rx="3" ry="3" style="stroke:#038048;stroke-width:1.0;"/><text fill="#000000" font-family="sans-serif" font-size="14" lengthAdjust="spacing" textLength="346" x="1992" y="530.4951">static pesquisarTexto(JTextField, JTextPane, JLabel)</text></g><!--MD5=[32ef947cdf5aa77adc94dfebec332a49]
class DestaqueUtils--><g id="elem_DestaqueUtils"><rect codeLine="57" fill="#F1F1F1" height="64.2969" id="DestaqueUtils" rx="2.5" ry="2.5" style="stroke:#181818;stroke-width:0.5;" width="307" x="2378.5" y="473.5"/><ellipse cx="2479.25" cy="489.5" fill="#ADD1B2" rx="11" ry="11" style="stroke:#181818;stroke-width:1.0;"/><path d="M2482.2188,495.1406 Q2481.6406,495.4375 2481,495.5781 Q2480.3594,495.7344 2479.6563,495.7344 Q2477.1563,495.7344 2475.8281,494.0938 Q2474.5156,492.4375 2474.5156,489.3125 Q2474.5156,486.1875 2475.8281,484.5313 Q2477.1563,482.875 2479.6563,482.875 Q2480.3594,482.875 2481,483.0313 Q2481.6563,483.1875 2482.2188,483.4844 L2482.2188,486.2031 Q2481.5938,485.625 2481,485.3594 Q2480.4063,485.0781 2479.7813,485.0781 Q2478.4375,485.0781 2477.75,486.1563 Q2477.0625,487.2188 2477.0625,489.3125 Q2477.0625,491.4063 2477.75,492.4844 Q2478.4375,493.5469 2479.7813,493.5469 Q2480.4063,493.5469 2481,493.2813 Q2481.5938,493 2482.2188,492.4219 L2482.2188,495.1406 Z " fill="#000000"/><text fill="#000000" font-family="sans-serif" font-size="14" lengthAdjust="spacing" textLength="97" x="2499.75" y="494.3467">DestaqueUtils</text><line style="stroke:#181818;stroke-width:0.5;" x1="2379.5" x2="2684.5" y1="505.5" y2="505.5"/><line style="stroke:#181818;stroke-width:0.5;" x1="2379.5" x2="2684.5" y1="513.5" y2="513.5"/><ellipse cx="2389.5" cy="527.1484" fill="#84BE84" rx="3" ry="3" style="stroke:#038048;stroke-width:1.0;"/><text fill="#000000" font-family="sans-serif" font-size="14" lengthAdjust="spacing" textLength="281" x="2398.5" y="530.4951">static alternarMarcacao(JTextPane, Color)</text></g><!--MD5=[21abf82a0507ce3de651c438aefe8117]
link EditorTexto to UIUtils--><g id="link_EditorTexto_UIUtils"><path codeLine="61" d="M1278.21,246.6 C1059.5,302.1 682.71,397.73 454.52,455.64 " fill="none" id="EditorTexto-to-UIUtils" style="stroke:#181818;stroke-width:1.0;"/><polygon fill="#181818" points="449.49,456.92,459.1973,458.5841,454.3365,455.6905,457.2301,450.8297,449.49,456.92" style="stroke:#181818;stroke-width:1.0;"/></g><!--MD5=[becf49cef6fa2a8e1a5cb91eac3cfd0a]
link EditorTexto to ArquivoUtils--><g id="link_EditorTexto_ArquivoUtils"><path codeLine="62" d="M1278.13,275.98 C1147.48,331.46 971.27,406.29 856.65,454.96 " fill="none" id="EditorTexto-to-ArquivoUtils" style="stroke:#181818;stroke-width:1.0;"/><polygon fill="#181818" points="851.92,456.97,861.7676,457.1272,856.5209,455.0125,858.6356,449.7658,851.92,456.97" style="stroke:#181818;stroke-width:1.0;"/></g><!--MD5=[995bad45b87c64cbe176db38481db71b]
link EditorTexto to TextoUtils--><g id="link_EditorTexto_TextoUtils"><path codeLine="63" d="M1278.32,360.81 C1241.82,394.36 1205.84,427.43 1177.61,453.38 " fill="none" id="EditorTexto-to-TextoUtils" style="stroke:#181818;stroke-width:1.0;"/><polygon fill="#181818" points="1173.86,456.83,1183.2006,453.7069,1177.5493,453.4553,1177.801,447.804,1173.86,456.83" style="stroke:#181818;stroke-width:1.0;"/></g><!--MD5=[1e114d9819586d6d891362a8f630363d]
link EditorTexto to UndoRedoUtils--><g id="link_EditorTexto_UndoRedoUtils"><path codeLine="64" d="M1450,397.35 C1450,420.38 1450,441.92 1450,459.57 " fill="none" id="EditorTexto-to-UndoRedoUtils" style="stroke:#181818;stroke-width:1.0;"/><polygon fill="#181818" points="1450,464.91,1454,455.91,1450,459.91,1446,455.91,1450,464.91" style="stroke:#181818;stroke-width:1.0;"/></g><!--MD5=[fae9d0646a4996660c43997537f5b6ec]
link EditorTexto to EstiloUtils--><g id="link_EditorTexto_EstiloUtils"><path codeLine="65" d="M1621.68,360.81 C1662.03,397.9 1701.76,434.42 1731.07,461.36 " fill="none" id="EditorTexto-to-EstiloUtils" style="stroke:#181818;stroke-width:1.0;"/><polygon fill="#181818" points="1734.95,464.93,1731.0265,455.8964,1731.2672,461.5481,1725.6155,461.7889,1734.95,464.93" style="stroke:#181818;stroke-width:1.0;"/></g><!--MD5=[676cc5304d591e4e4d7cb8773402c6bb]
link EditorTexto to PesquisaUtils--><g id="link_EditorTexto_PesquisaUtils"><path codeLine="66" d="M1621.84,276.18 C1767.83,338.35 1970.63,424.71 2080.23,471.38 " fill="none" id="EditorTexto-to-PesquisaUtils" style="stroke:#181818;stroke-width:1.0;"/><polygon fill="#181818" points="2085.06,473.44,2078.3444,466.2358,2080.4591,471.4825,2075.2124,473.5972,2085.06,473.44" style="stroke:#181818;stroke-width:1.0;"/></g><!--MD5=[7ba3fa834cf247af226a6bc4a71fadbd]
link EditorTexto to DestaqueUtils--><g id="link_EditorTexto_DestaqueUtils"><path codeLine="67" d="M1621.88,250.82 C1805.23,301.85 2104.14,385.07 2362,457 C2379.4,461.85 2397.81,466.99 2415.83,472.03 " fill="none" id="EditorTexto-to-DestaqueUtils" style="stroke:#181818;stroke-width:1.0;"/><polygon fill="#181818" points="2420.9,473.44,2413.3056,467.169,2416.0838,472.0966,2411.1562,474.8748,2420.9,473.44" style="stroke:#181818;stroke-width:1.0;"/></g><!--MD5=[ee16386712eb24b59aa3fa21de6ee69f]
@startuml
class EditorTexto {
    - JTextPane areaTexto
    - JLabel rotuloArquivo
    - JLabel rotuloContadorPalavras
    - JTextField campoPesquisa
    - JLabel rotuloOcorrencias
    - UndoManager gerenciadorDesfazer
    - JFileChooser seletorArquivo
    - Color corDestaquePadrao
    - JButton botaoCorDestaque
    + EditorTexto()
    - atualizarContadorPalavras()
    - inicializarComponentes()
    - configurarAtalhos()
    - abrirArquivo()
    - salvarArquivo()
    - alterarFonte()
    - criarBarraMenu(): JMenuBar
    - configurarBarraFerramentas()
    - adicionarBotaoCitacao(JToolBar)
    - adicionarBotoesAlinhamento(JToolBar)
    - redimensionarIcone(String, int, int): ImageIcon
}

class UIUtils {
    + static criarItemMenu(String, ActionListener): JMenuItem
    + static criarBotaoEstilizado(Class, String, String, ActionListener): JButton
    + static criarIconeCorDestaque(Color): ImageIcon
}

class ArquivoUtils {
    + static abrirArquivo(JFileChooser, JTextPane, JLabel)
    + static salvarArquivo(JFileChooser, JTextPane, JLabel)
    + static fecharArquivo(JTextPane, JLabel)
}

class TextoUtils {
    + static alterarTamanhoFonte(JTextPane, int)
    + static alterarFonte(JTextPane, String)
    + static definirTamanhoFonte(JTextPane, int)
}

class UndoRedoUtils {
    + static desfazerAcao(UndoManager)
    + static refazerAcao(UndoManager)
}

class EstiloUtils {
    + static aplicarEstiloTexto(JTextPane, Object)
    + static inserirCitação(JTextPane)
}

class PesquisaUtils {
    + static pesquisarTexto(JTextField, JTextPane, JLabel)
}

class DestaqueUtils {
    + static alternarMarcacao(JTextPane, Color)
}

EditorTexto - -> UIUtils
EditorTexto - -> ArquivoUtils
EditorTexto - -> TextoUtils
EditorTexto - -> UndoRedoUtils
EditorTexto - -> EstiloUtils
EditorTexto - -> PesquisaUtils
EditorTexto - -> DestaqueUtils
@enduml

PlantUML version 1.2022.7(Mon Aug 22 17:01:30 UTC 2022)
(GPL source distribution)
Java Runtime: OpenJDK Runtime Environment
JVM: OpenJDK 64-Bit Server VM
Default Encoding: UTF-8
Language: en
Country: null
--></g></svg>